<?xml version="1.0" encoding="UTF-8" standalone="no"?>
<!DOCTYPE svg PUBLIC "-//W3C//DTD SVG 1.1//EN" "http://www.w3.org/Graphics/SVG/1.1/DTD/svg11.dtd">
<svg width="100%" height="100%" viewBox="0 0 155 155" version="1.1" xmlns="http://www.w3.org/2000/svg" xmlns:xlink="http://www.w3.org/1999/xlink" xml:space="preserve" xmlns:serif="http://www.serif.com/" style="fill-rule:evenodd;clip-rule:evenodd;stroke-linejoin:round;stroke-miterlimit:2;">
    <g transform="matrix(1,0,0,1,-55.3626,-56.4638)">
        <g transform="matrix(0,-1,-1,0,132.701,56.4638)">
            <g id="background">
                <path d="M-77.338,-77.338C-120.05,-77.338 -154.676,-42.712 -154.676,0C-154.676,42.713 -120.05,77.338 -77.338,77.338C-34.625,77.338 0,42.713 0,0C0,-42.712 -34.625,-77.338 -77.338,-77.338" style="fill:rgb(24,87,135);fill-rule:nonzero;"/>
            </g>
        </g>
        <g id="object">
            <g transform="matrix(0,-1,-1,0,178.794,116.819)">
                <path d="M-14.937,-14.936C-23.186,-14.936 -29.873,-8.248 -29.873,0.001C-29.873,8.25 -23.186,14.937 -14.937,14.937C-6.687,14.937 0,8.25 0,0.001C0,-8.248 -6.687,-14.936 -14.937,-14.936" style="fill:rgb(123,87,53);fill-rule:nonzero;"/>
            </g>
            <g transform="matrix(0,-1,-1,0,178.794,122.181)">
                <path d="M-9.575,-9.574C-14.863,-9.574 -19.149,-5.289 -19.149,0C-19.149,5.288 -14.863,9.575 -9.575,9.575C-4.286,9.575 0,5.288 0,0C0,-5.289 -4.286,-9.574 -9.575,-9.574" style="fill:rgb(243,219,189);fill-rule:nonzero;"/>
            </g>
            <g transform="matrix(0,-1,-1,0,86.6085,114.909)">
                <path d="M-14.937,-14.935C-23.185,-14.935 -29.872,-8.247 -29.872,0.001C-29.872,8.25 -23.185,14.937 -14.937,14.937C-6.687,14.937 0,8.25 0,0.001C0,-8.247 -6.687,-14.935 -14.937,-14.935" style="fill:rgb(123,87,53);fill-rule:nonzero;"/>
            </g>
            <g transform="matrix(0,-1,-1,0,86.6086,120.271)">
                <path d="M-9.575,-9.574C-14.863,-9.574 -19.149,-5.286 -19.149,0.001C-19.149,5.29 -14.863,9.575 -9.575,9.575C-4.286,9.575 0,5.29 0,0.001C0,-5.286 -4.286,-9.574 -9.575,-9.574" style="fill:rgb(243,219,189);fill-rule:nonzero;"/>
            </g>
            <g transform="matrix(0,-1,-1,0,132.363,86.7354)">
                <path d="M-46.915,-46.916C-72.827,-46.916 -93.832,-25.911 -93.832,0C-93.832,25.911 -72.827,46.915 -46.915,46.915C-21.004,46.915 0.001,25.911 0.001,0C0.001,-25.911 -21.004,-46.916 -46.915,-46.916" style="fill:rgb(138,96,60);fill-rule:nonzero;"/>
            </g>
            <g transform="matrix(1,0,0,1,172.069,160.174)">
                <path d="M0,-30.026C0.042,-41.308 -9.069,-50.489 -20.352,-50.532C-29.174,-50.566 -36.713,-45 -39.6,-37.176C-42.429,-45.021 -49.923,-50.644 -58.747,-50.677C-70.03,-50.72 -79.21,-41.609 -79.253,-30.326C-79.296,-19.044 -70.185,-9.863 -58.902,-9.819C-58.591,-9.819 -58.282,-9.827 -57.974,-9.84C-59.301,-6.386 -60.056,-2.865 -60.056,0.267C-60.056,11.549 -50.91,20.694 -39.627,20.694C-28.344,20.694 -19.198,11.549 -19.198,0.267C-19.198,-2.818 -19.839,-6.283 -20.996,-9.689C-20.833,-9.684 -20.671,-9.675 -20.507,-9.675C-9.224,-9.632 -0.044,-18.743 0,-30.026" style="fill:rgb(243,219,189);fill-rule:nonzero;"/>
            </g>
            <g transform="matrix(0,1,1,0,151.459,120.097)">
                <path d="M10.553,-10.553C16.383,-10.553 21.106,-5.828 21.106,0.001C21.106,5.831 16.383,10.553 10.553,10.553C4.724,10.553 0,5.831 0,0.001C0,-5.828 4.724,-10.553 10.553,-10.553" style="fill:rgb(209,190,165);fill-rule:nonzero;"/>
            </g>
            <g transform="matrix(0,1,1,0,151.032,124.457)">
                <path d="M6.279,-6.278C9.747,-6.278 12.557,-3.467 12.557,0C12.557,3.467 9.747,6.279 6.279,6.279C2.812,6.279 0,3.467 0,0C0,-3.467 2.812,-6.278 6.279,-6.278" style="fill:rgb(61,52,47);fill-rule:nonzero;"/>
            </g>
            <g transform="matrix(0,1,1,0,153.125,122.564)">
                <path d="M2.99,-2.989C4.641,-2.989 5.979,-1.652 5.979,-0.001C5.979,1.651 4.641,2.99 2.99,2.99C1.339,2.99 0,1.651 0,-0.001C0,-1.652 1.339,-2.989 2.99,-2.989" style="fill:white;fill-rule:nonzero;"/>
            </g>
            <g transform="matrix(0,-1,-1,0,113.626,120.097)">
                <path d="M-10.553,-10.553C-16.383,-10.553 -21.106,-5.83 -21.106,-0.001C-21.106,5.829 -16.383,10.553 -10.553,10.553C-4.724,10.553 0,5.829 0,-0.001C0,-5.83 -4.724,-10.553 -10.553,-10.553" style="fill:rgb(209,190,165);fill-rule:nonzero;"/>
            </g>
            <g transform="matrix(0,-1,-1,0,114.054,124.457)">
                <path d="M-6.279,-6.278C-9.747,-6.278 -12.557,-3.467 -12.557,0C-12.557,3.467 -9.747,6.279 -6.279,6.279C-2.812,6.279 0,3.467 0,0C0,-3.467 -2.812,-6.278 -6.279,-6.278" style="fill:rgb(61,52,47);fill-rule:nonzero;"/>
            </g>
            <g transform="matrix(0,-1,-1,0,111.961,122.564)">
                <path d="M-2.99,-2.989C-4.641,-2.989 -5.979,-1.652 -5.979,-0.001C-5.979,1.651 -4.641,2.99 -2.99,2.99C-1.339,2.99 -0,1.651 -0,-0.001C-0,-1.652 -1.339,-2.989 -2.99,-2.989" style="fill:white;fill-rule:nonzero;"/>
            </g>
            <g transform="matrix(0,-1,-1,0,132.937,160.826)">
                <path d="M-4.038,-4.037C-6.267,-4.037 -8.075,-2.229 -8.075,0.001C-8.075,2.231 -6.267,4.038 -4.038,4.038C-1.808,4.038 0,2.231 0,0.001C0,-2.229 -1.808,-4.037 -4.038,-4.037" style="fill:rgb(61,52,47);fill-rule:nonzero;"/>
            </g>
        </g>
    </g>
</svg>
